<svg width="50" height="44" viewBox="0 0 50 44" fill="none" xmlns="http://www.w3.org/2000/svg">
<path d="M37.8597 13.4467C37.3775 13.1899 36.8395 13.0556 36.2931 13.0556C35.7467 13.0556 35.2087 13.1899 34.7264 13.4467L27.4079 17.7541L22.4468 20.4948L15.2671 24.8041C14.7849 25.0609 14.2469 25.1952 13.7005 25.1952C13.1541 25.1952 12.6161 25.0609 12.1338 24.8041L6.52085 21.4096C6.04437 21.1272 5.64988 20.7253 5.37641 20.2436C5.10293 19.7619 4.95994 19.2172 4.96159 18.6633V12.1411C4.96629 11.5889 5.11284 11.0471 5.38719 10.5678C5.66153 10.0885 6.05446 9.6878 6.52826 9.40408L12.1412 6.14111C12.6235 5.88431 13.1615 5.75 13.7079 5.75C14.2543 5.75 14.7923 5.88431 15.2746 6.14111L20.8875 9.53556C21.3647 9.81644 21.7602 10.2171 22.035 10.6978C22.3098 11.1785 22.4543 11.7226 22.4542 12.2763V16.5837L27.4079 13.7078V9.26334C27.4041 8.71016 27.258 8.16726 26.9836 7.68691C26.7093 7.20657 26.3158 6.80496 25.8412 6.52074L15.406 0.391112C14.9238 0.134312 14.3858 0 13.8394 0C13.293 0 12.755 0.134312 12.2727 0.391112L1.56715 6.65778C1.08753 6.90242 0.686322 7.27695 0.409311 7.73863C0.132301 8.20032 -0.00936311 8.73057 0.00048019 9.26889V21.5393C0.00422998 22.0924 0.150333 22.6353 0.424723 23.1157C0.699113 23.596 1.09255 23.9976 1.56715 24.2819L12.1412 30.417C12.6235 30.6738 13.1615 30.8082 13.7079 30.8082C14.2543 30.8082 14.7923 30.6738 15.2746 30.417L22.4542 26.2393L27.4079 23.367L34.5875 19.1893C35.0698 18.9325 35.6078 18.7981 36.1542 18.7981C36.7006 18.7981 37.2386 18.9325 37.7209 19.1893L43.3357 22.4541C43.8126 22.7352 44.2079 23.1359 44.4827 23.6166C44.7574 24.0972 44.9021 24.6412 44.9023 25.1948V31.7226C44.8988 32.2756 44.7528 32.8183 44.4783 33.2984C44.2039 33.7785 43.8104 34.1797 43.3357 34.4633L37.8597 37.7374C37.3775 37.9942 36.8395 38.1285 36.2931 38.1285C35.7467 38.1285 35.2087 37.9942 34.7264 37.7374L29.1134 34.4726C28.6363 34.1917 28.2407 33.7911 27.9659 33.3104C27.6912 32.8297 27.5467 32.2856 27.5468 31.7319V27.5522L22.5931 30.417V34.7244C22.5968 35.2776 22.7429 35.8205 23.0173 36.3009C23.2917 36.7812 23.6851 37.1828 24.1597 37.467L34.7338 43.6022C35.2161 43.859 35.7541 43.9933 36.3005 43.9933C36.8469 43.9933 37.3849 43.859 37.8671 43.6022L48.4412 37.467C48.9172 37.1849 49.3113 36.7836 49.5847 36.3026C49.8582 35.8217 50.0015 35.2777 50.0005 34.7244V22.317C49.997 21.7641 49.8509 21.2213 49.5765 20.7413C49.3021 20.2612 48.9085 19.8599 48.4338 19.5763L37.8597 13.4467Z" fill="white"/>
</svg>
