<svg width="38" height="50" viewBox="0 0 38 50" fill="none" xmlns="http://www.w3.org/2000/svg">
<path d="M34.8851 15.4009C34.3409 9.94106 29.4195 8.10766 23.2047 7.58201L23.2105 0.00934116L18.395 0.00636868L18.3897 7.3799C17.1239 7.3799 15.8301 7.40198 14.5443 7.42576L14.5509 0.00339749L9.73818 0L9.73108 7.57054C8.68878 7.5905 7.66467 7.60833 6.66672 7.60833V7.58456L0.0257175 7.57776L0.0235085 12.5031C0.0235085 12.5031 3.5793 12.4407 3.51986 12.5031C5.4714 12.5031 6.10432 13.5896 6.28883 14.525L6.28174 23.1485C6.45188 23.1487 6.62183 23.1596 6.79047 23.1812C6.62991 23.1812 6.4587 23.1812 6.28174 23.1812L6.27154 35.2674C6.18549 35.8546 5.82401 36.7917 4.46148 36.7929C4.52313 36.8452 0.96113 36.7895 0.96113 36.7895L0 42.2978L6.26666 42.3021C7.4327 42.3021 8.58012 42.3241 9.70669 42.3314L9.70314 49.9907L14.5128 49.9945L14.5186 42.4163C15.839 42.4435 17.1168 42.4541 18.3649 42.4541L18.3573 49.997L23.1728 50L23.1794 42.3543C31.2752 41.9153 36.9426 39.9672 37.6514 32.6896C38.224 26.8302 35.345 24.2139 30.7523 23.1541C33.5465 21.7954 35.2923 19.3985 34.8869 15.4035L34.8851 15.4009ZM28.1359 31.7734C28.1359 37.4969 17.8974 36.8392 14.6339 36.8396L14.6428 26.6918C17.9071 26.6948 28.1412 25.8031 28.1363 31.7734H28.1359ZM25.9071 17.4543C25.9018 22.6615 17.3647 22.048 14.6463 22.0463L14.6538 12.8428C17.3718 12.8449 25.9111 12.0233 25.9076 17.4543H25.9071Z" fill="white"/>
</svg>
